<svg id="flat" height="512" viewBox="0 0 512 512" width="512" xmlns="http://www.w3.org/2000/svg"><path d="m472 328h-432v-98.898c0-7.236 5.866-13.102 13.102-13.102h405.796c7.236 0 13.102 5.866 13.102 13.102z" fill="#52b3cc"/><path d="m448 328h-384v-63.059c0-13.775 11.166-24.941 24.941-24.941h334.118c13.775 0 24.941 11.166 24.941 24.941z" fill="#ffd466"/><path d="m440 312h-368c-22.091 0-40 17.909-40 40v40h448v-40c0-22.091-17.909-40-40-40z" fill="#f5ecd7"/><path d="m24 384h464v64h-464z" fill="#52b3cc"/><path d="m232.403 312h-129.82c-1.894 0-3.625-1.07-4.472-2.764-4.166-8.332-4.166-18.14 0-26.472.847-1.694 2.578-2.764 4.472-2.764h129.82c1.894 0 3.625 1.07 4.472 2.764 4.166 8.332 4.166 18.14 0 26.472-.847 1.694-2.578 2.764-4.472 2.764z" fill="#2b5f6c"/><path d="m279.597 312h129.82c1.894 0 3.625-1.07 4.472-2.764 4.166-8.332 4.166-18.14 0-26.472-.847-1.694-2.578-2.764-4.472-2.764h-129.82c-1.894 0-3.625 1.07-4.472 2.764-4.166 8.332-4.166 18.14 0 26.472.847 1.694 2.578 2.764 4.472 2.764z" fill="#2b5f6c"/><path d="m216 64h80v112h-80z" fill="#52b3cc"/><path d="m336 96h64v80h-64z" fill="#e8775d"/><path d="m112 112h64v64h-64z" fill="#ffd466"/></svg>