<svg clip-rule="evenodd" fill-rule="evenodd" height="512" image-rendering="optimizeQuality" shape-rendering="geometricPrecision" text-rendering="geometricPrecision" viewBox="0 0 1.70666 1.70666" width="512" xmlns="http://www.w3.org/2000/svg"><g id="Layer_x0020_1"><path d="m.190067.418441c-.00447638 0-.0081063-.00363386-.0081063-.0081063v-.103071c0-.0106732.0162126-.0106732.0162126 0v.103071c0 .00447244-.00362598.0081063-.0081063.0081063z" fill="#465a61"/><path d="m.181961.326177v-.0189134c0-.0106732.0162126-.0106732.0162126 0v.0189134z" fill="#3e4e54"/><path d="m.444949.691748h-.157035c-.00214961 0-.00420866-.00085433-.00572835-.00237795-.00244488-.00244882-.0595669-.0609094-.0349803-.153776.00308268-.0115276.0218937-.043563.0279685-.0537323.0286575-.0479764.0534094-.0894173.00311811-.170323-.00335039-.00538976.00053937-.0123858.00688583-.0123858l.162516.00000394c.00634252 0 .0102362.00699213.00688189.0123858-.0502913.0809055-.0255354.122346.00312598.170323.00602362.0100866.0249449.042311.0279606.0537323.0245827.0928622-.0325276.151331-.0349685.153776-.0015315.00151969-.00359449.00237402-.00574409.00237402z" fill="#c5d3dd"/><path d="m.286815.326177c-.00256299-.00473228-.00539764-.00961024-.00852362-.0146378-.00335039-.00538976.00053937-.0123858.00688583-.0123858l.162516.00000394c.00634252 0 .0102362.00699213.00688189.0123858-.00312205.00502756-.00595669.00990157-.00851969.0146339h-.15924z" fill="#b4c1ca"/><path d="m.243465.609323c-.00365354-.0210906-.00364173-.0458583.00374016-.0737283.00245669-.00919685.0149291-.0314449.0229528-.0452323h.192551c.0080315.0137913.0205472.036126.0229528.0452362.00737795.0278661.0073937.0526339.00374016.0737244h-.245937z" fill="#a0abba"/><path d="m.612055.31537h-.491244c-.0053937 0-.00929134-.00519291-.00777953-.010374l.0871732-.299157c.00100787-.00346457.00417717-.00583858.00777953-.00583858h.31678c.00360236 0 .00677165.00237402.0077874.00583858l.0876102.301425c0 .00447638-.00362598.0081063-.0081063.0081063z" fill="#fdc465"/><path d="m.533984.31537h-.0164685l-.058878-.31537h.0164843zm-.309984 0h-.0168346l.0420157-.31537h.0160039z" fill="#fdd89a"/><path d="m.432902.31537h-.0163504l-.0175551-.31537h.0160945zm-.122205 0h-.0163071l.0210118-.31537h.016189z" fill="#fdd89a"/><path d="m1.51053.691681h-.166382c-.0110157 0-.0199488-.00894094-.0199488-.0199528v-.459366c0-.0110157.00894488-.0199567.0199488-.0199567h.166382c.0110157 0 .0199528.00894094.0199528.0199567v.459366c0 .0110118-.00893701.0199528-.0199528.0199528z" fill="#e6503b"/><path d="m1.3242.580004v-.099154h.20628v.099154z" fill="#f19f1f"/><path d="m1.42735.419492c-.0110157 0-.0199528-.00894094-.0199528-.0199528v-.102681c0-.0262638.0399055-.0262638.0399055 0v.102681c.00001181.0110118-.00894094.0199528-.0199528.0199528z" fill="#f19f1f"/><path d="m1.39778 1.69822h-.065622c-.00777559 0-.0148268-.00451575-.0181102-.0115551l-.0636299-.137154c-.00611024-.013189.00355906-.0283622.0181063-.0283622h.129256c.0110118 0 .0199528.00894882.0199528.0199528v.137154c0 .0110354-.00893307.0199646-.0199528.0199646z" fill="#9b5929"/><path d="m1.27023 1.59222-.019811-.0427087c-.00611024-.013189.00355906-.0283622.0181063-.0283622h.129256c.0110118 0 .0199528.00894882.0199528.0199528v.0511181h-.147504z" fill="#8e5328"/><path d="m.374524 1.69822c-.0417441 0-.0855906.00842126-.0855906-.0199488v-.137154c0-.0110157.00894094-.0199528.0199528-.0199528h.129256c.0145433 0 .0242165.0151732.0180945.0283465l-.0636181.137154c-.00326772.00704331-.0103307.0115551-.0180945.0115551z" fill="#9b5929"/><path d="m.288933 1.59222v-.0511024c0-.0110157.00894094-.0199528.0199528-.0199528h.129256c.0145433 0 .0242165.0151732.0180945.0283465l-.0198071.0427087h-.147496z" fill="#8e5328"/><path d="m1.5423 1.56562h-.688965c-.0110157 0-.0199528-.00895276-.0199528-.0199567v-.724701c0-.0110118.00893701-.0199488.0199528-.0199488h.688949c.0110118 0 .0199528.00893701.0199528.0199488v.724697c.00001575.0110197-.0089252.0199606-.019937.0199606z" fill="#dfac68"/><path d="m.184343 1.52569h.649039v-.684777h-.649039z"/><path d="m.853335 1.56562h-.688949c-.0110118 0-.0199528-.00895276-.0199528-.0199567v-.724701c0-.0110118.00894094-.0199488.0199528-.0199488h.688949c.0110157 0 .0199528.00893701.0199528.0199488v.724697c0 .0110197-.00893701.0199606-.0199528.0199606z" fill="#dd9e5d"/><path d="m.753504 1.46579h-.489307c-.0110118 0-.0199528-.00895276-.0199528-.0199528v-.525047c0-.0110157.00894094-.0199567.0199528-.0199567h.489307c.0110157 0 .0199567.00894882.0199567.0199567v.525047c0 .011-.0089252.0199528-.0199567.0199528z" fill="#b47c4e"/><path d="m1.27019.691681h-.166382c-.0110157 0-.0199488-.00894094-.0199488-.0199528v-.459366c0-.0110157.00894488-.0199567.0199488-.0199567h.166382c.0110157 0 .0199528.00894094.0199528.0199567v.459366c0 .0110118-.00893701.0199528-.0199528.0199528z" fill="#7f6399"/><path d="m1.08386.580004v-.099154h.20628v.099154z" fill="#b699ca"/><path d="m1.18701.419492c-.0110157 0-.0199528-.00894094-.0199528-.0199528v-.102681c0-.0262638.0399055-.0262638.0399055 0v.102681c.00001181.0110118-.00894094.0199528-.0199528.0199528z" fill="#b699ca"/><path d="m.919197.691681h-.228752c-.0110157 0-.0199528-.00894094-.0199528-.0199528v-.279783c0-.0110157.00893701-.0199528.0199528-.0199528h.228752c.0110118 0 .0199528.00893701.0199528.0199528v.279783c0 .0110276-.00894094.0199528-.0199528.0199528z" fill="#f6eaab"/><path d="m.670492.607472v-.130366h.268658v.130366z" fill="#fbf3ce"/><path d="m1.64054 1.70667h-1.56402c-.0262677 0-.0262677-.0399094 0-.0399094h1.56401c.0262677 0 .026252.0399094.00001575.0399094z" fill="#dfac68"/><path d="m.833382 1.17087v-.273201c.00603937-.00451575.0136181-.00716142.021622-.00716142h.707232v.287528h-.707232c-.008 0-.0155827-.00264173-.021622-.00716535z" fill="#e29b5e"/><path d="m.833382 1.14478v-.221016c0-.0110157.00968504-.0199528.021622-.0199528h.707232v.260921h-.707232c-.011937 0-.021622-.00894882-.021622-.0199528z" fill="#f7d6ab"/><path d="m1.28148 1.08205h-.167358c-.0275276 0-.0199567-.0396299-.0199567-.0755906 0-.0262677.0399094-.0262559.0399094 0v.0356654l.127437.00000787c0-.0236299-.00566142-.055626.0199528-.055626.0275709 0 .0199016.0396575.0199567.0755906.0000315.0110039-.0089252.0199528-.0199409.0199528z" fill="#dfac68"/><path d="m.833382 1.50885v-.273201c.00603937-.00451575.0136181-.00716142.021622-.00716142h.707232v.287528h-.707232c-.008 0-.0155827-.00264173-.021622-.00716535z" fill="#e29b5e"/><path d="m.833382 1.48276v-.221016c0-.0110157.00968504-.0199528.021622-.0199528h.707232v.260921h-.707232c-.011937 0-.021622-.00894882-.021622-.0199528z" fill="#f7d6ab"/><path d="m1.28148 1.42003h-.167358c-.0275276 0-.0199567-.0396299-.0199567-.0755906 0-.0262677.0399094-.0262598.0399094 0v.0356654l.127437.00000787c0-.0236299-.00566142-.055626.0199528-.055626.0275709 0 .0199016.0396575.0199567.0755906.0000315.0110039-.0089252.0199528-.0199409.0199528z" fill="#dfac68"/><path d="m.833.821h.04v.744h-.04z" fill="#9b5929"/><path d="m.284154 1.42587h.449401v-.485126h-.449401z" fill="#f7d6ab"/><path d="m.655181 1.28695c-.0359567 0-.0755866.0075748-.0755866-.0199528 0-.0256142.032-.0199528.0556339-.0199528v-.127445c-.0236339 0-.0556339.00566142-.0556339-.0199528 0-.0275276.0396299-.0199528.0755866-.0199528.0110157 0 .0199567.00894882.0199567.0199528v.167362c0 .0109921-.00894094.0199409-.0199567.0199409z" fill="#b47c4e"/><path d="m1.64848.840913h-1.5903c-.0110118 0-.0199528-.00894094-.0199528-.0199528v-.149236c0-.0110157.00894094-.0199528.0199528-.0199528l1.5903.00000394c.0110118 0 .0199528.00893701.0199528.0199528v.14924c0 .0110118-.00894094.0199449-.0199528.0199449z" fill="#9b5929"/></g></svg>