<svg id="Icons" height="512" viewBox="0 0 60 60" width="512" xmlns="http://www.w3.org/2000/svg"><path d="m58.291 27.94a3 3 0 0 1 -4.23.35l-.061-.05v28.76a2 2 0 0 1 -2 2h-44a1.993 1.993 0 0 1 -2-2v-28.76l-.06.05a3 3 0 1 1 -3.88-4.58l25.871-21.89a3.08 3.08 0 0 1 2.069-.82 3.012 3.012 0 0 1 2.07.82l25.87 21.89a3.006 3.006 0 0 1 .351 4.23z" fill="#ecf0f1"/><path d="m58.291 27.94a3 3 0 0 1 -4.23.35l-.061-.05-23.349-19.76a1 1 0 0 0 -1.3 0l-23.351 19.76-.06.05a3 3 0 1 1 -3.88-4.58l25.871-21.89a3.08 3.08 0 0 1 2.069-.82 3.012 3.012 0 0 1 2.07.82l25.87 21.89a3.006 3.006 0 0 1 .351 4.23z" fill="#e64c3c"/><path d="m41 25v1h-8v-1a4 4 0 0 1 8 0z" fill="#ff5364"/><path d="m40.85 49a3.08 3.08 0 0 1 -.35.76l-2.67 4.79a.99.99 0 0 1 -1.66 0l-2.67-4.79a3.08 3.08 0 0 1 -.35-.76z" fill="#f9c795"/><path d="m41 26v22.09a2.8 2.8 0 0 1 -.15.91h-3.85v-23z" fill="#f0c419"/><path d="m37 26v23h-3.85a2.8 2.8 0 0 1 -.15-.91v-22.09z" fill="#f29c1f"/><path d="m33 26h8v4h-8z" fill="#d1d4d1"/><rect fill="#9fc9d3" height="34" rx="2" width="8" x="20" y="21"/><g fill="#547580"><path d="m23 26a1 1 0 0 1 -1 1h-2v-2h2a1 1 0 0 1 1 1z"/><path d="m23 31a1 1 0 0 1 -1 1h-2v-2h2a1 1 0 0 1 1 1z"/><path d="m23 36a1 1 0 0 1 -1 1h-2v-2h2a1 1 0 0 1 1 1z"/><path d="m23 41a1 1 0 0 1 -1 1h-2v-2h2a1 1 0 0 1 1 1z"/><path d="m23 46a1 1 0 0 1 -1 1h-2v-2h2a1 1 0 0 1 1 1z"/><path d="m23 51a1 1 0 0 1 -1 1h-2v-2h2a1 1 0 0 1 1 1z"/></g></svg>