<svg height="512pt" viewBox="0 -12 512.00001 512" width="512pt" xmlns="http://www.w3.org/2000/svg"><path d="m65.074219 142.289062c-16.445313 0-29.820313 13.378907-29.820313 29.824219v27.183594h-9.671875c-4.140625 0-7.5 3.355469-7.5 7.5 0 4.140625 3.359375 7.5 7.5 7.5h9.671875v17.9375c0 4.144531 3.355469 7.5 7.5 7.5 4.140625 0 7.5-3.355469 7.5-7.5v-60.121094c0-8.171875 6.648438-14.824219 14.820313-14.824219s14.820312 6.648438 14.820312 14.824219v26.125c0 4.144531 3.355469 7.5 7.5 7.5 4.140625 0 7.5-3.355469 7.5-7.5v-26.125c0-16.445312-13.378906-29.824219-29.820312-29.824219zm0 0" fill="#596e99"/><path d="m256 236.273438c-4.144531 0-7.5-3.359376-7.5-7.5v-16.484376c0-4.140624 3.355469-7.5 7.5-7.5s7.5 3.359376 7.5 7.5v16.484376c0 4.140624-3.355469 7.5-7.5 7.5zm0 0" fill="#3a4d7b"/><path d="m334.296875 239.734375c-4.144531 0-7.5-3.355469-7.5-7.5v-10.742187c0-.9375-.765625-1.703126-1.703125-1.703126h-13.015625c-4.140625 0-7.5-3.359374-7.5-7.5 0-4.144531 3.359375-7.5 7.5-7.5h13.015625c9.210938 0 16.703125 7.492188 16.703125 16.703126v10.742187c0 4.144531-3.359375 7.5-7.5 7.5zm0 0" fill="#3a4d7b"/><path d="m177.703125 239.734375c-4.140625 0-7.5-3.355469-7.5-7.5v-10.742187c0-9.210938 7.492187-16.703126 16.703125-16.703126h13.015625c4.140625 0 7.5 3.355469 7.5 7.5 0 4.140626-3.359375 7.5-7.5 7.5h-13.015625c-.9375 0-1.703125.761719-1.703125 1.703126v10.742187c0 4.144531-3.355469 7.5-7.5 7.5zm0 0" fill="#3a4d7b"/><path d="m0 232.234375h512v28.75h-512zm0 0" fill="#d68376"/><path d="m484.363281 232.234375h27.636719v28.75h-27.636719zm0 0" fill="#a65d51"/><path d="m0 260.984375v217.015625c0 5.691406 4.613281 10.304688 10.300781 10.304688h491.398438c5.6875 0 10.300781-4.613282 10.300781-10.304688v-217.015625zm0 0" fill="#aabfd5"/><path d="m364.167969 331.34375h147.832031v146.65625c0 5.691406-4.613281 10.300781-10.300781 10.300781h-137.53125zm0 0" fill="#fed89b"/><path d="m484.363281 260.984375v217.015625c0 5.691406-4.613281 10.300781-10.300781 10.300781h27.636719c5.6875 0 10.300781-4.609375 10.300781-10.300781v-217.015625zm0 0" fill="#e2b074"/><path d="m0 331.34375h147.832031v156.957031h-137.53125c-5.6875 0-10.300781-4.609375-10.300781-10.300781zm0 0" fill="#fed89b"/><path d="m147.832031 331.34375h216.335938v156.957031h-216.335938zm0 0" fill="#cae5ed"/><path d="m364.167969 260.984375h147.832031v70.359375h-147.832031zm0 0" fill="#f0f2dc"/><path d="m484.363281 260.984375h27.636719v70.359375h-27.636719zm0 0" fill="#ccc5a9"/><path d="m0 260.984375h147.832031v70.359375h-147.832031zm0 0" fill="#f0f2dc"/><path d="m221.289062 295.144531c0 6.945313-5.628906 12.574219-12.574218 12.574219-6.941406 0-12.570313-5.628906-12.570313-12.574219 0-6.941406 5.628907-12.570312 12.570313-12.570312 6.945312 0 12.574218 5.628906 12.574218 12.570312zm0 0" fill="#596e99"/><path d="m315.855469 295.144531c0 6.945313-5.628907 12.574219-12.570313 12.574219-6.945312 0-12.574218-5.628906-12.574218-12.574219 0-6.941406 5.628906-12.570312 12.574218-12.570312 6.941406 0 12.570313 5.628906 12.570313 12.570312zm0 0" fill="#596e99"/><path d="m479.628906 158.375v-21.460938c0-2.847656-2.304687-5.152343-5.148437-5.152343h-8.382813c-2.84375 0-5.152344 2.304687-5.152344 5.152343v21.460938l-7.175781 9.027344c-4.195312 5.273437-6.480469 11.8125-6.480469 18.550781v46.28125h45.996094v-46.28125c0-6.738281-2.28125-13.277344-6.476562-18.550781zm0 0" fill="#8fc264"/><path d="m409.226562 177.949219v-21.460938c0-2.847656-2.304687-5.152343-5.152343-5.152343h-8.378907c-2.847656 0-5.152343 2.304687-5.152343 5.152343v21.460938l-7.179688 9.027343c-4.191406 5.273438-6.476562 11.8125-6.476562 18.550782v26.710937h45.996093v-26.710937c0-6.738282-2.285156-13.277344-6.476562-18.550782zm0 0" fill="#ffe266"/><path d="m290.710938 26.324219v-26.324219h-69.421876v26.324219c0 1.902343-1.046874 3.648437-2.722656 4.542969l-70.734375 37.8125v24.035156c0 2.847656 2.304688 5.152344 5.148438 5.152344h206.039062c2.84375 0 5.148438-2.304688 5.148438-5.152344v-24.035156l-70.734375-37.8125c-1.675782-.894532-2.722656-2.640626-2.722656-4.542969zm0 0" fill="#aabfd5"/><path d="m293.433594 30.867188c-1.675782-.894532-2.722656-2.640626-2.722656-4.542969v-26.324219h-34.511719v26.324219c0 1.902343 1.046875 3.648437 2.726562 4.542969l70.730469 37.8125v24.035156c0 2.847656-2.304688 5.152344-5.148438 5.152344h34.511719c2.84375 0 5.148438-2.304688 5.148438-5.152344v-24.035156zm0 0" fill="#7d8eb0"/><path d="m152.980469 97.867188h206.039062c2.84375 0 5.148438-2.304688 5.148438-5.152344v-24.035156h-216.335938v24.035156c0 2.847656 2.304688 5.152344 5.148438 5.152344zm0 0" fill="#596e99"/><path d="m329.65625 92.714844c0 2.847656-2.304688 5.152344-5.148438 5.152344 33.890626-.5625 35.226563 1.214843 38.019532-1.398438 1.011718-.945312 1.640625-2.363281 1.640625-3.753906v-24.035156h-34.511719zm0 0" fill="#3a4d7b"/><g fill="#a65d51"><path d="m456.886719 296.160156h-37.601563c-4.144531 0-7.5-3.359375-7.5-7.5 0-4.144531 3.355469-7.5 7.5-7.5h37.601563c4.140625 0 7.5 3.355469 7.5 7.5 0 4.140625-3.359375 7.5-7.5 7.5zm0 0"/><path d="m92.714844 296.160156h-37.601563c-4.140625 0-7.5-3.359375-7.5-7.5 0-4.144531 3.359375-7.5 7.5-7.5h37.601563c4.144531 0 7.5 3.355469 7.5 7.5 0 4.140625-3.355469 7.5-7.5 7.5zm0 0"/><path d="m389.40625 427.128906c-4.140625 0-7.5-3.359375-7.5-7.5v-32.410156c0-4.140625 3.359375-7.5 7.5-7.5 4.144531 0 7.5 3.359375 7.5 7.5v32.410156c0 4.140625-3.355469 7.5-7.5 7.5zm0 0"/><path d="m122.59375 427.128906c-4.144531 0-7.5-3.359375-7.5-7.5v-32.410156c0-4.140625 3.355469-7.5 7.5-7.5 4.140625 0 7.5 3.359375 7.5 7.5v32.410156c0 4.140625-3.359375 7.5-7.5 7.5zm0 0"/></g><path d="m176.675781 454.636719v-89.625c0-2.847657 2.304688-5.152344 5.152344-5.152344h148.34375c2.847656 0 5.152344 2.304687 5.152344 5.152344v89.625c0 2.84375-2.304688 5.152343-5.152344 5.152343h-148.34375c-2.847656-.003906-5.152344-2.308593-5.152344-5.152343zm0 0" fill="#56a6e8"/><path d="m330.171875 467.285156h-148.34375c-6.976563 0-12.652344-5.671875-12.652344-12.648437v-89.625c0-6.976563 5.675781-12.652344 12.652344-12.652344h148.34375c6.976563 0 12.652344 5.675781 12.652344 12.652344v89.625c0 6.976562-5.675781 12.648437-12.652344 12.648437zm-145.996094-15h143.648438v-84.925781h-143.648438zm0 0" fill="#596e99"/></svg>