<svg id="flat" height="512" viewBox="0 0 500 500" width="512" xmlns="http://www.w3.org/2000/svg"><path d="m73.007 431.422h36.178a0 0 0 0 1 0 0v52.3a5 5 0 0 1 -5 5h-26.178a5 5 0 0 1 -5-5v-52.3a0 0 0 0 1 0 0z" fill="#4b4b54"/><path d="m391.325 431.422h36.175a0 0 0 0 1 0 0v52.3a5 5 0 0 1 -5 5h-26.175a5 5 0 0 1 -5-5v-52.3a0 0 0 0 1 0 0z" fill="#4b4b54"/><path d="m250.255 50.723h100.532v314.532h-100.532z" fill="#b0e5ff"/><path d="m350.787 50.723h100.532v314.532h-100.532z" fill="#b0e5ff"/><path d="m49.191 33.245h201.064v409.777h-201.064z" fill="#a3442b"/><path d="m49.191 365.255h201.064a0 0 0 0 1 0 0v96.4a0 0 0 0 1 0 0h-195.375a5.689 5.689 0 0 1 -5.689-5.689v-90.711a0 0 0 0 1 0 0z" fill="#f29979"/><path d="m250.255 365.255h201.064a0 0 0 0 1 0 0v91.4a5 5 0 0 1 -5 5h-196.064a0 0 0 0 1 0 0v-96.4a0 0 0 0 1 0 0z" fill="#f29979"/><path d="m54.191 15.766h392.128a5 5 0 0 1 5 5v29.957a0 0 0 0 1 0 0h-402.128a0 0 0 0 1 0 0v-29.957a5 5 0 0 1 5-5z" fill="#f29979"/><g fill="#fcc05e"><path d="m161.213 418.458h-22.979a5 5 0 1 1 0-10h22.979a5 5 0 1 1 0 10z"/><path d="m111.634 128.213a5 5 0 0 1 -5-5v-29.873a5 5 0 0 1 10 0v29.873a5 5 0 0 1 -5 5z"/><path d="m187.812 128.213a5 5 0 0 1 -5-5v-29.873a5 5 0 0 1 10 0v29.873a5 5 0 0 1 -5 5z"/><path d="m49.19 88.34h201.07v10h-201.07z"/><path d="m362.276 418.458h-22.976a5 5 0 0 1 0-10h22.978a5 5 0 0 1 0 10z"/></g><path d="m329.511 221.915a5 5 0 0 1 -5-5v-22.979a5 5 0 1 1 10 0v22.979a5 5 0 0 1 -5 5z" fill="#4b4b54"/><path d="m372.063 221.915a5 5 0 0 1 -5-5v-22.979a5 5 0 0 1 10 0v22.979a5 5 0 0 1 -5 5z" fill="#4b4b54"/><path d="m245.26 365.255h10v96.404h-10z" fill="#a3442b"/><path d="m345.9 50.72h10v314.54h-10z" fill="#37aced"/><path d="m111.634 123.213a22.979 22.979 0 0 1 22.979 22.979v177.574a5 5 0 0 1 -5 5h-35.957a5 5 0 0 1 -5-5v-177.575a22.979 22.979 0 0 1 22.979-22.979z" fill="#bfbfd8"/><path d="m187.813 123.213a22.979 22.979 0 0 1 22.979 22.979v177.574a5 5 0 0 1 -5 5h-35.958a5 5 0 0 1 -5-5v-177.575a22.979 22.979 0 0 1 22.979-22.979z" fill="#eeedfc"/><path d="m49.191 360.261h402.127v10h-402.127z" fill="#a3442b"/></svg>